<svg xmlns="http://www.w3.org/2000/svg" viewBox="0 0 200 52" role="img" aria-label="Mindora">
  <defs>
    <linearGradient id="lg" x1="5%" y1="5%" x2="95%" y2="95%">
      <stop offset="0%" stop-color="#C87B68"/>
      <stop offset="100%" stop-color="#6568A8"/>
    </linearGradient>
    <radialGradient id="bgSoft" cx="40%" cy="35%" r="65%">
      <stop offset="0%" stop-color="#C87B68" stop-opacity="0.2"/>
      <stop offset="100%" stop-color="#6568A8" stop-opacity="0.08"/>
    </radialGradient>
  </defs>
  <!-- Bloom mark -->
  <circle cx="26" cy="26" r="24" fill="url(#bgSoft)"/>
  <circle cx="26" cy="26" r="23.5" fill="none" stroke="url(#lg)" stroke-width="0.7" opacity="0.4"/>
  <ellipse cx="26" cy="15" rx="3.8" ry="9.2" fill="url(#lg)" opacity="0.42" transform="rotate(30,26,26)"/>
  <ellipse cx="26" cy="15" rx="3.8" ry="9.2" fill="url(#lg)" opacity="0.42" transform="rotate(150,26,26)"/>
  <ellipse cx="26" cy="15" rx="3.8" ry="9.2" fill="url(#lg)" opacity="0.42" transform="rotate(270,26,26)"/>
  <ellipse cx="26" cy="15" rx="4.2" ry="9.8" fill="url(#lg)" opacity="0.88" transform="rotate(0,26,26)"/>
  <ellipse cx="26" cy="15" rx="4.2" ry="9.8" fill="url(#lg)" opacity="0.88" transform="rotate(120,26,26)"/>
  <ellipse cx="26" cy="15" rx="4.2" ry="9.8" fill="url(#lg)" opacity="0.88" transform="rotate(240,26,26)"/>
  <circle cx="26" cy="26" r="5.8" fill="url(#lg)"/>
  <circle cx="24.6" cy="24.6" r="2.2" fill="white" opacity="0.48"/>
  <!-- Wordmark -->
  <text x="62" y="34"
    font-family="'Fraunces', Georgia, serif"
    font-size="23" font-weight="600" letter-spacing="-0.6"
    fill="#ECEAF5">Mindora</text>
</svg>
